<svg xmlns="http://www.w3.org/2000/svg" id="exclamation"  viewBox="0 0 79.849 79.85">
  <g id="Group_535" data-name="Group 535" transform="translate(-689.384 -247.919)">
    <g id="Group_534" data-name="Group 534">
      <g id="Group_533" data-name="Group 533">
        <path id="Path_305" data-name="Path 305" d="M729.287,247.919a39.925,39.925,0,1,1-39.9,39.925A39.936,39.936,0,0,1,729.287,247.919Z" fill="#fff4f5"/>
      </g>
    </g>
    <path id="Path_306" data-name="Path 306" d="M729.306,265.179c3.334.049,6.068,2.7,5.733,5.689-.375,3.354-.843,6.7-1.272,10.047-.5,3.889-.983,7.78-1.513,11.665a5.392,5.392,0,0,1-.593,1.908,2.646,2.646,0,0,1-4.7-.018,8.559,8.559,0,0,1-.734-2.828c-.908-6.873-1.777-13.751-2.651-20.629a5.284,5.284,0,0,1,4.269-5.606C728.326,265.3,728.82,265.253,729.306,265.179Z" fill="#ff1121"/>
    <path id="Path_307" data-name="Path 307" d="M734.355,305.5a5.047,5.047,0,1,1-4.938-5.155A5.021,5.021,0,0,1,734.355,305.5Z" fill="#ff1121"/>
  </g>
</svg>
