<svg xmlns="http://www.w3.org/2000/svg" id="expand" viewBox="0 0 18.484 13.092">
    <g data-name="Group 10833">
        <path data-name="Path 5809" d="M818.272 156.782h-7.934a1.159 1.159 0 0 1-.287-2.3 2.894 2.894 0 0 1 .384-.011h16.012a1.137 1.137 0 0 1 1.088 1.176 1.12 1.12 0 0 1-1.089 1.124c-.544.024-1.089.007-1.635.008z" transform="translate(-809.054 -154.469)" />
        <path data-name="Path 5810" d="M818.244 175.521h-7.886a1.161 1.161 0 0 1-.334-2.3 2.174 2.174 0 0 1 .336-.013h15.868a1.164 1.164 0 1 1 0 2.31q-3.993.006-7.984.003z" transform="translate(-809.051 -167.819)" />
        <path data-name="Path 5811" d="M818.235 194.259h-7.886a1.161 1.161 0 0 1-.326-2.3 2.253 2.253 0 0 1 .336-.012h15.868a1.162 1.162 0 0 1 1.293 1.3 1.149 1.149 0 0 1-1.255 1.006q-4.015.01-8.03.006z" transform="translate(-809.046 -181.167)" />
    </g>
</svg>
