<svg data-name="Group 13572" xmlns="http://www.w3.org/2000/svg" id="rols-icon" viewBox="0 0 20 20">
    <defs>
        <clipPath id="qo19ovpqma">
            <path data-name="Rectangle 556" d="M0 0h20v20H0z"/>
        </clipPath>
    </defs>
    <g data-name="Group 11283">
        <g data-name="Group 13557">
            <path data-name="Path 9386" d="M-2024.6 988.8h6.288a1.886 1.886 0 0 1 2.049 2.036v9.257a1.892 1.892 0 0 1-2.038 2.053q-6.308.007-12.615 0a2.034 2.034 0 0 1-1.914-1.178.81.81 0 0 1-.082-.373c-.009-3.333-.024-6.666-.01-10a1.817 1.817 0 0 1 1.878-1.8c2.144-.005 4.291.005 6.444.005zm7.085 8.487V990.884c0-.632-.2-.832-.846-.832h-12.466c-.669 0-.853.185-.853.859v7.777c0 .123.013.245.024.428.14-.13.235-.213.324-.3l2.239-2.237a1.473 1.473 0 0 1 2.321.009c.282.283.542.589.831.906.15-.169.237-.263.318-.362.909-1.09 1.8-2.195 2.737-3.262a2.112 2.112 0 0 1 .921-.6 1.32 1.32 0 0 1 1.452.517c.963 1.138 1.942 2.269 2.993 3.495zm-13.93 3.407.031.125a5.486 5.486 0 0 0 .635.073q4.724.008 9.449 0h3.045a.7.7 0 0 0 .692-.346 2.107 2.107 0 0 0-.167-1.622l-3.508-4.09c-.414-.482-.413-.481-.83.02l-3.148 3.78c-.413.5-.732.508-1.2.044-.415-.413-.836-.82-1.239-1.246-.191-.2-.326-.187-.512.005-.562.579-1.138 1.145-1.709 1.714q-.771.77-1.544 1.538z" transform="translate(2036.267 -987.966)" />
            <path data-name="Path 9387" d="M-2021.459 1006.609c-.462-.121-1.079-.277-1.693-.442q-5.651-1.512-11.3-3.03a1.9 1.9 0 0 1-1.46-2.5c.437-1.687.87-3.374 1.328-5.055a1.107 1.107 0 0 1 .416-.607.616.616 0 0 1 .595.068.872.872 0 0 1 .217.677c-.241 1.078-.536 2.144-.813 3.213-.18.693-.363 1.384-.539 2.078a.65.65 0 0 0 .528.907q6.329 1.7 12.662 3.388a.641.641 0 0 0 .9-.533c.132-.516.254-1.035.389-1.551a.646.646 0 0 1 .792-.552.642.642 0 0 1 .418.841c-.136.569-.268 1.14-.424 1.7a1.931 1.931 0 0 1-2.016 1.398z" transform="translate(2036.003 -987.439)" />
            <path data-name="Path 9388" d="M-2027.313 992.771a1.664 1.664 0 0 1-1.654 1.666 1.665 1.665 0 0 1-1.664-1.7 1.658 1.658 0 0 1 1.675-1.642 1.658 1.658 0 0 1 1.643 1.676zm-1.191.078v-.175c-.15-.106-.289-.278-.452-.305-.251-.042-.414.133-.415.4a.355.355 0 0 0 .419.4c.161-.034.299-.21.452-.319z" transform="translate(2036.465 -987.768)" />
        </g>
    </g>
</svg>
