<svg xmlns="http://www.w3.org/2000/svg" id="pages-nav-icon" viewBox="0 0 20 20">
    <defs>
        <clipPath id="dhhpm63rma">
            <path data-name="Rectangle 555"  d="M0 0h20v20H0z"/>
        </clipPath>
    </defs>
    <g data-name="Group 13571">
        <g data-name="Group 11280" style="clip-path:url(#dhhpm63rma)">
            <g data-name="Group 13554">
                <path data-name="Path 5" d="M-3978.829-6078.107h4.668a4.173 4.173 0 0 1 4.256 4.256v8.014a4.01 4.01 0 0 1-1.209 2.943l-1.4 1.4a4.03 4.03 0 0 1-2.974 1.224h-7.978a4.175 4.175 0 0 1-4.277-4.271q-.005-4.652 0-9.3a4.176 4.176 0 0 1 4.281-4.267q2.316-.002 4.633.001zm7.53 11.645v-7.355a2.784 2.784 0 0 0-2.9-2.892h-9.231a2.785 2.785 0 0 0-2.919 2.907v9.231a2.786 2.786 0 0 0 2.916 2.911h6.967c.112 0 .225-.011.366-.017v-1.861a2.8 2.8 0 0 1 2.912-2.923c.614-.004 1.229-.002 1.888-.002zm-.15 1.417c-.693 0-1.387-.046-2.073.013a1.293 1.293 0 0 0-1.167 1.237c-.038.658-.008 1.318-.008 1.979.823-.058 3.147-2.37 3.248-3.23z" transform="translate(3988.825 6079.187)" />
                <path data-name="Path 6" d="M-3968.964-6064.138h3.969c.528 0 .851.276.841.713s-.323.68-.836.681h-7.938c-.527 0-.85-.277-.84-.713s.322-.68.836-.681z" transform="translate(3978.961 6069.329)" />
                <path data-name="Path 7" d="M-3968.96-6050.17h3.969c.515 0 .827.258.836.681s-.313.713-.84.713h-7.938c-.513 0-.827-.259-.836-.682s.313-.712.84-.712q1.985-.002 3.969 0z" transform="translate(3978.961 6059.473)" />
                <path data-name="Path 8" d="M-3971.017-6036.2h1.949a.711.711 0 0 1 .8.68.711.711 0 0 1-.8.714h-3.9a.71.71 0 0 1-.8-.714.711.711 0 0 1 .8-.679l1.951-.001z" transform="translate(3978.961 6049.617)" />
            </g>
        </g>
    </g>
</svg>
