<svg xmlns="http://www.w3.org/2000/svg" id="seasor-icon" viewBox="0 0 20 20">
    <defs>
        <clipPath id="mai3e9h8ja">
            <path data-name="Rectangle 553" d="M0 0h20v20H0z"/>
        </clipPath>
    </defs>
    <g data-name="Group 13569">
        <g data-name="Group 11274" style="clip-path:url(#mai3e9h8ja)">
            <g data-name="Group 13555">
                <path data-name="Path 9375" d="M-1811.054 897.838c.177-.566.355-1.1.507-1.648a.884.884 0 0 0-.032-.423c-.361-1.451-.7-2.908-1.1-4.349a6.082 6.082 0 0 1 .123-3.7c.217-.625.487-1.232.747-1.842a.636.636 0 0 1 .673-.395.663.663 0 0 1 .638.5c.338 1.094.681 2.187 1.053 3.38.073-.193.12-.3.155-.416.3-.956.6-1.911.882-2.87a.746.746 0 0 1 .667-.618.723.723 0 0 1 .749.508 8.05 8.05 0 0 1 1.028 3.914 15.865 15.865 0 0 1-.5 2.548c-.254 1.092-.553 2.174-.81 3.266a1.552 1.552 0 0 0 .015.7c.117.476.28.94.424 1.408a2.66 2.66 0 0 1 3.5 1.635 3.179 3.179 0 0 1-1.515 3.982 2.2 2.2 0 0 1-2.413-.309 3 3 0 0 1-1.017-1.549l-.9-2.894a.652.652 0 0 0-.721.563c-.227.85-.5 1.69-.781 2.522a2.566 2.566 0 0 1-3.228 1.752 2.87 2.87 0 0 1-1.822-2.486 4.278 4.278 0 0 1 .144-1.321 2.543 2.543 0 0 1 3.534-1.858zm4.413-11.071c-.085.269-.141.441-.194.614q-1.732 5.579-3.473 11.156a.789.789 0 0 1-.4.488c-.158.047-.4-.107-.576-.216a1.442 1.442 0 0 0-1.885.193 2.234 2.234 0 0 0-.583 2.141 1.835 1.835 0 0 0 1.125 1.455 1.629 1.629 0 0 0 2.087-1.167q.485-1.5.932-3.006a.668.668 0 0 1 .536-.515c.352-.083.694-.206 1.045-.289a.49.49 0 0 0 .412-.42q.781-3.18 1.6-6.351a6.248 6.248 0 0 0-.627-4.084zm-.622 11.651c.315 1.018.621 2.046.953 3.065a1.589 1.589 0 0 0 1.376 1.176 1.5 1.5 0 0 0 1.5-.752 2.238 2.238 0 0 0 .328-1.694c-.257-1.535-1.665-2.206-2.707-1.279-.262.233-.589.087-.715-.258-.092-.253-.165-.514-.248-.777zm-2.954-11.625a6.123 6.123 0 0 0-.719 3.615c.241 1.283.616 2.54.94 3.838.05-.056.085-.078.094-.109.317-1.011.633-2.022.941-3.036a.508.508 0 0 0-.008-.28c-.403-1.311-.812-2.621-1.249-4.028z" transform="translate(1821.257 -884.508)" style="stroke:#797979;stroke-width:.15px;fill:#797979"/>
                <path data-name="Path 9376" d="M-1835.774 894.492v-6.562a2.617 2.617 0 0 1 2.777-2.766c1.076 0 2.151-.014 3.226.013a.79.79 0 0 1 .515.3.47.47 0 0 1-.073.447.736.736 0 0 1-.482.173c-1.075.015-2.151.006-3.226.008a1.671 1.671 0 0 0-1.8 1.813v13.2a1.253 1.253 0 0 0 1.4 1.382c.242 0 .484-.009.725 0 .32.015.434-.1.365-.432q-.434-2.128-.834-4.263a1.669 1.669 0 0 1 1.034-1.972 4.452 4.452 0 0 1 2.488-.272.434.434 0 0 1 .427.52c-.038.312-.238.415-.536.406a12.422 12.422 0 0 0-1.338-.005c-.948.073-1.287.524-1.11 1.444q.373 1.937.765 3.871c.211 1.045-.263 1.639-1.327 1.637a7.513 7.513 0 0 1-1.121-.035 2.154 2.154 0 0 1-1.87-2.191c-.008-2.245-.005-4.481-.005-6.716z" transform="translate(1836.642 -884.294)"/>
                <path data-name="Path 9377" d="M-1826.494 901.466h-1.808c-.365 0-.557-.174-.541-.48.016-.334.225-.455.533-.455h3.617c.359 0 .566.186.545.481-.023.324-.223.457-.537.455-.603-.004-1.206-.001-1.809-.001z" transform="translate(1831.576 -895.527)"/>
                <path data-name="Path 9378" d="M-1826.529 916.824h-1.772c-.365 0-.556-.174-.542-.479.016-.334.224-.455.532-.455h3.617c.359 0 .566.184.546.48-.022.325-.223.457-.536.455-.616-.004-1.23-.001-1.845-.001z" transform="translate(1831.576 -906.752)"/>
                <path data-name="Path 9379" d="M-1826.5 893.805h-1.807c-.306 0-.52-.108-.535-.448-.013-.307.168-.47.543-.471h3.615c.312 0 .518.114.537.446.018.3-.172.47-.545.474-.608.004-1.208-.001-1.808-.001z" transform="translate(1831.576 -889.94)"/>
                <path data-name="Path 9380" d="M-1826.5 909.163h-1.807c-.307 0-.519-.11-.533-.45-.013-.308.167-.468.545-.469h3.615c.312 0 .517.116.535.448.017.3-.174.467-.547.471-.608.005-1.208 0-1.808 0z" transform="translate(1831.576 -901.164)"/>
                <path data-name="Path 9381" d="M-1792.738 923.1a.5.5 0 0 1 .527.511.505.505 0 0 1-.492.515.49.49 0 0 1-.52-.516.476.476 0 0 1 .485-.51z" transform="translate(1805.541 -912.027)"/>
            </g>
        </g>
    </g>
</svg>
