<svg xmlns="http://www.w3.org/2000/svg" id="setting-icon" viewBox="0 0 20 20">
    <defs>
        <clipPath id="s42u7eypja">
            <path data-name="Rectangle 558" d="M0 0h20v20H0z"/>
        </clipPath>
    </defs>
    <g data-name="Group 13574">
        <g data-name="Group 11289" style="clip-path:url(#s42u7eypja)">
            <g data-name="Group 13558">
                <path data-name="Path 9389" d="M621.048 390.8c-1.133 0-2.266.014-3.4 0a2.986 2.986 0 0 1-2.674-1.539q-1.749-2.982-3.456-5.99a2.952 2.952 0 0 1 .009-3.083q1.7-2.986 3.436-5.954a2.988 2.988 0 0 1 2.705-1.556q3.42-.022 6.84 0a2.988 2.988 0 0 1 2.706 1.556q1.736 2.967 3.436 5.955a2.977 2.977 0 0 1-.009 3.12q-1.695 2.967-3.416 5.919a3.022 3.022 0 0 1-2.737 1.575c-1.147.01-2.293-.003-3.44-.003zm.041-16.833h-3.4a1.774 1.774 0 0 0-1.627.944l-3.4 5.882a1.772 1.772 0 0 0 0 1.881l3.4 5.882a1.772 1.772 0 0 0 1.627.945h6.8a1.773 1.773 0 0 0 1.627-.944l3.4-5.882a1.775 1.775 0 0 0 0-1.881q-1.695-2.943-3.395-5.882a1.773 1.773 0 0 0-1.627-.944l-3.405.002z" transform="translate(-611.088 -371.738)"/>
                <path data-name="Path 9390" d="M631.9 387.069a3.825 3.825 0 1 1-3.855 3.793 3.807 3.807 0 0 1 3.855-3.793zm-.042 1.3a2.527 2.527 0 1 0 2.537 2.537 2.512 2.512 0 0 0-2.539-2.539z" transform="translate(-621.865 -380.893)"/>
            </g>
        </g>
    </g>
</svg>
