<svg xmlns="http://www.w3.org/2000/svg" id="toggle" viewBox="0 0 13.474 13.471">
    <g data-name="Group 37839">
        <path data-name="Path 43094" d="M5460.765 6537.325v-1.84a1.03 1.03 0 0 1 1.1-1.1h3.734a.985.985 0 0 1 1.067.989q.035 1.971 0 3.943a.935.935 0 0 1-.969.968c-1.314.021-2.63.024-3.944 0a.986.986 0 0 1-.989-1.068c-.001-.631.001-1.261.001-1.892z" transform="translate(-5460.764 -6534.383)"/>
        <path data-name="Path 43095" d="M5493.566 6537.355v1.867a.986.986 0 0 1-.992 1.064q-1.972.034-3.944 0a.934.934 0 0 1-.966-.972q-.032-1.971 0-3.942a.984.984 0 0 1 1.071-.985h3.734a1.029 1.029 0 0 1 1.1 1.1c-.001.623-.003 1.245-.003 1.868z" transform="translate(-5480.092 -6534.383)"/>
        <path data-name="Path 43096" d="M5463.716 6567.173h-1.867a1.026 1.026 0 0 1-1.084-1.09v-3.733a.99.99 0 0 1 1-1.08q1.958-.034 3.917 0a.943.943 0 0 1 .981.986q.032 1.957 0 3.916a.991.991 0 0 1-1.085 1c-.617.003-1.239.001-1.862.001z" transform="translate(-5460.763 -6553.704)"/>
        <path data-name="Path 43097" d="M5493.566 6564.2v1.893a1.023 1.023 0 0 1-1.069 1.078q-1.893.006-3.786 0a.983.983 0 0 1-1.047-.983q-.034-1.971 0-3.942a.935.935 0 0 1 .964-.974q1.972-.034 3.943 0a.988.988 0 0 1 .995 1.063c.003.624 0 1.247 0 1.865z" transform="translate(-5480.093 -6553.707)"/>
    </g>
</svg>
