<svg xmlns="http://www.w3.org/2000/svg" id="arrow-right" viewBox="0 0 4.922 8.486">
    <g data-name="Group 3718">
        <path data-name="Path 5585"
            d="m-236.442 277.608 2.75-2.751c.108-.108.213-.221.327-.323a.666.666 0 0 1 .972-.017.656.656 0 0 1-.035.971c-.751.767-1.514 1.521-2.273 2.28-.374.375-.747.75-1.124 1.123-.457.452-.766.458-1.212.015q-1.659-1.652-3.312-3.311c-.4-.4-.438-.788-.123-1.091s.679-.249 1.062.132c.976.973 1.949 1.951 2.968 2.972z"
            transform="rotate(-90 -253.254 21.058)" ></path>
    </g>
</svg>