<svg   xmlns="http://www.w3.org/2000/svg"  viewBox="0 0 20 20" id="bootstrap-icon">
    <defs>
        <clipPath id="gu994c3fma">
            <path data-name="Rectangle 553"   d="M0 0h20v20H0z" />
        </clipPath>
    </defs>
    <g data-name="Group 11273">
        <g data-name="Group 11274" style="clip-path: url(#gu994c3fma)">
            <g data-name="Group 11273">
                <path data-name="Path 5826" d="M734.184 531.065a3.259 3.259 0 0 1-.515-.344q-1.569-1.549-3.12-3.117c-.391-.4-.394-.636-.006-1.029 1.046-1.057 2.1-2.1 3.154-3.157a.619.619 0 0 1 1 .011q1.575 1.581 3.155 3.156a.614.614 0 0 1 .006 1c-1.066 1.061-2.126 2.13-3.2 3.188a2.752 2.752 0 0 1-.474.292zm2.43-3.909-2.456-2.456-2.4 2.391 2.456 2.462z" transform="translate(-718.576 -517.092)"  />
                <path data-name="Path 5827" d="M725.723 531.6a3.415 3.415 0 0 1 .353-.538q1.547-1.569 3.115-3.121c.412-.407.644-.4 1.068.018q1.547 1.534 3.081 3.081c.4.406.4.664 0 1.071q-1.534 1.547-3.081 3.083c-.427.425-.661.419-1.1-.019q-1.526-1.519-3.041-3.047a4.867 4.867 0 0 1-.395-.528zm4.026-2.425-2.391 2.387 2.42 2.438 2.4-2.4z" transform="translate(-719.709 -515.974)"  />
                <path data-name="Path 5828" d="M733.677 522.59a2.74 2.74 0 0 1-.311.5q-1.566 1.588-3.151 3.159c-.393.388-.635.385-1.03-.006q-1.567-1.551-3.119-3.119c-.382-.385-.386-.653-.011-1.031 1.046-1.058 2.1-2.1 3.152-3.159a.612.612 0 0 1 .995 0c1.049 1.055 2.1 2.1 3.15 3.161a3.06 3.06 0 0 1 .325.495zm-6.41-.039L729.7 525l2.385-2.375-2.443-2.459z" transform="translate(-719.696 -518.214)"  />
                <path data-name="Path 5829" d="M725.2 523.114a3.083 3.083 0 0 1 .51.324q1.588 1.567 3.157 3.154c.385.389.38.634-.014 1.031q-1.551 1.568-3.117 3.119c-.381.378-.654.378-1.033 0q-1.566-1.552-3.118-3.119c-.4-.409-.4-.648.013-1.065q1.536-1.545 3.084-3.079a3.943 3.943 0 0 1 .518-.365zm2.416 4.034-2.384-2.393-2.425 2.4 2.4 2.4z" transform="translate(-720.818 -517.105)"  />
            </g>
        </g>
    </g>
</svg>