<svg id="cards-icon" data-name="Group 11282" xmlns="http://www.w3.org/2000/svg"  viewBox="0 0 20 20">
    <defs>
        <clipPath id="u78jcn82sa">
            <path data-name="Rectangle 556"  d="M0 0h20v20H0z" />
        </clipPath>
    </defs>
    <g data-name="Group 11283" style="clip-path: url(#u78jcn82sa)">
        <g data-name="Group 11282">
            <path
                data-name="Path 5833"
                d="M817.444 537.156h-7.65a1.7 1.7 0 0 1-1.879-1.867v-8.471a1.682 1.682 0 0 1 1.854-1.846c.56 0 1.121-.025 1.68.007a1.157 1.157 0 0 0 .969-.407c1.94-1.965 3.9-3.913 5.853-5.865a1.719 1.719 0 0 1 2.727.009q2.692 2.691 5.386 5.381a1.838 1.838 0 0 1 .585 1.819 3.982 3.982 0 0 0 .054.807q.007 4.329 0 8.659a1.679 1.679 0 0 1-1.782 1.775q-3.897.002-7.797-.001zm.039-11.064h-7.649c-.638 0-.8.159-.8.788v8.359c0 .629.167.8.792.8h15.3c.6 0 .779-.174.779-.774v-8.4c0-.606-.166-.772-.774-.772zm-3.847-1.148c.125.015.172.025.219.025 1.764 0 3.529.006 5.292-.009a.722.722 0 0 0 .44-.209c.809-.79 1.6-1.6 2.406-2.391a7.2 7.2 0 0 1 .592-.474L820.2 519.5c-.464-.463-.677-.46-1.149.011l-5.114 5.112c-.087.089-.169.177-.302.321zm7.442.026h1.235a.452.452 0 0 0 .279-.062c.5-.491 1-.994 1.472-1.474l-.707-.746zm3.9-.676-.811.676h1.48z"
                transform="translate(-807.472 -517.597)"
                
            />
            <path data-name="Path 5834" d="M811.6 525.676c.311 0 .621-.007.931 0a.9.9 0 0 1 .953.893 14.848 14.848 0 0 1 0 1.564.907.907 0 0 1-.92.894c-.645.023-1.293.025-1.938 0a.92.92 0 0 1-.917-.974q-.011-.707 0-1.415a.914.914 0 0 1 .959-.961c.311-.009.622-.003.932-.001zm.757 1.145h-1.5v1.06h1.5z" transform="translate(-807.025 -515.689)"  />
            <path data-name="Path 5835" d="M809.693 531.267V530.2h2.561v1.07z" transform="translate(-807.027 -514.557)"  />
            <path data-name="Path 5836" d="M815.481 530.2v1.074h-2.554V530.2z" transform="translate(-806.219 -514.558)"  />
            <path data-name="Path 5837" d="M816.149 531.269V530.2h2.561v1.073z" transform="translate(-805.413 -514.558)"  />
            <path data-name="Path 5838" d="M821.935 530.2v1.066h-2.562V530.2z" transform="translate(-804.607 -514.557)"  />
        </g>
    </g>
</svg>