<svg id="charts-icon" xmlns="http://www.w3.org/2000/svg" viewBox="0 0 20 20">
    <defs>
        <clipPath id="432efv64ha">
            <path data-name="Rectangle 558"  d="M0 0h20v20H0z" />
        </clipPath>
    </defs>
    <g data-name="Group 11288">
        <g data-name="Group 11289" style="clip-path: url(#432efv64ha)">
            <g data-name="Group 11288">
                <path data-name="Path 5843" d="M896.416 522.811a8.807 8.807 0 0 1 5.757-8.214c.286-.1.589-.159.791.081a.83.83 0 0 1 .2.65.99.99 0 0 1-.534.532 7.707 7.707 0 0 0-3.179 2.292 7.477 7.477 0 0 0 4.5 12.034 7.4 7.4 0 0 0 8.276-4.695 1.026 1.026 0 0 1 .519-.551.834.834 0 0 1 .655.189.617.617 0 0 1 .1.753 8.491 8.491 0 0 1-5.946 5.47 8.818 8.818 0 0 1-11.029-7.215c-.057-.437-.07-.883-.11-1.326z" transform="translate(-895.916 -512.175)"  />
                <path data-name="Path 5844" d="M902.953 517.9v-4c0-.622.232-.849.849-.846a10.182 10.182 0 0 1 9.839 8.489 15.021 15.021 0 0 1 .141 1.621.642.642 0 0 1-.7.729c-2.741.005-5.483.015-8.223-.01a1.946 1.946 0 0 1-1.9-1.942c-.019-1.346 0-2.693 0-4.039zm1.348-3.425v7.181c0 .666.22.885.889.885H912.371a8.706 8.706 0 0 0-8.071-8.069z" transform="translate(-894.283 -512.54)"  />
            </g>
        </g>
    </g>
</svg>