<svg id="layout-icon" xmlns="http://www.w3.org/2000/svg"  viewBox="0 0 20 20">
    <defs>
        <clipPath id="92tks522ma">
            <path data-name="Rectangle 559"   d="M0 0h20v20H0z" />
        </clipPath>
    </defs>
    <g data-name="Group 11291">
        <g data-name="Group 11292" style="clip-path: url(#92tks522ma)">
            <g data-name="Group 11291">
                <path data-name="Path 5845" d="M904.7 532.266h-6.027a3.45 3.45 0 0 1-3.621-3.62v-12.054a3.449 3.449 0 0 1 3.619-3.623h12.055a3.45 3.45 0 0 1 3.621 3.62v12.055a3.45 3.45 0 0 1-3.62 3.621q-3.01.003-6.027.001zm-.7-17.924H898.751a2.109 2.109 0 0 0-2.319 2.308v6.891c0 1.733-.006 3.465 0 5.2a1.932 1.932 0 0 0 1.685 2.079c1.949.085 3.905.025 5.88.025zm8.982 7.573v-5.276a2.1 2.1 0 0 0-2.3-2.294H905.422v7.573zm-7.568 1.406v7.552c.144.007.266.018.389.018h4.9a2.1 2.1 0 0 0 2.281-2.271v-4.9c0-.133-.01-.265-.016-.4z" transform="translate(-894.702 -512.616)"   />
            </g>
        </g>
    </g>
</svg>