<svg id="home-page" xmlns="http://www.w3.org/2000/svg" viewBox="0 0 20 20">
    <defs>
        <clipPath id="lqsfy2l7ba">
            <path   d="M0 0h20v20H0z" />
        </clipPath>
    </defs>
    <g data-name="Group 11270">
        <g data-name="Group 11271" style="clip-path: url(#lqsfy2l7ba)">
            <g data-name="Group 11270">
                <path data-name="Path 5822" d="M706.664 522.379a480.333 480.333 0 0 1-3.651-3.588 1.169 1.169 0 0 0-.885-.368h-.006c-2.275.006-4.591 0-6.825.006h-2.844a2.224 2.224 0 0 0-2.4 2.4v14.979a2.2 2.2 0 0 0 2.32 2.319h12.308a2.2 2.2 0 0 0 2.32-2.319v-4.5q0-4.056.005-8.109a1.059 1.059 0 0 0-.342-.82zm-4.925-2.672V521.972c0 1.159.5 1.654 1.673 1.656.749 0 1.5 0 2.255.008l.033.011.03.01v12.066c0 .78-.344 1.129-1.115 1.13h-12.152c-.779 0-1.126-.345-1.126-1.119v-14.9c0-.776.345-1.124 1.121-1.124h9.281zm2.686 2.64c-.408 0-.825 0-1.246-.009a.25.25 0 0 1-.147-.137c-.014-.42-.013-.841-.01-1.285v-.251l1.616 1.682z" transform="translate(-688.535 -518.278)"  />
                <path data-name="Path 5823" d="M693.824 526.984h7.791c.481 0 .775-.234.785-.624a.587.587 0 0 0-.157-.436.864.864 0 0 0-.638-.216h-7.792a.82.82 0 0 0-.6.2.607.607 0 0 0-.164.439c.005.4.295.636.775.637z" transform="translate(-687.786 -516.458)"  />
                <path data-name="Path 5824" d="M693.849 530.653h7.1c.424 0 .664-.172.732-.529a.581.581 0 0 0-.109-.5.834.834 0 0 0-.658-.251h-7.056c-.519 0-.807.226-.811.635a.588.588 0 0 0 .161.434.87.87 0 0 0 .641.211z" transform="translate(-687.786 -515.54)"  />
                <path data-name="Path 5825" d="M693.851 528.818h3.131v-.064.064h3.167c.439 0 .714-.208.755-.568a.587.587 0 0 0-.138-.469.842.842 0 0 0-.644-.24h-6.261c-.52 0-.809.225-.812.631a.587.587 0 0 0 .16.435.873.873 0 0 0 .642.211z" transform="translate(-687.787 -516)"  />
            </g>
        </g>
    </g>
</svg>