<svg id="wedgites-icon" xmlns="http://www.w3.org/2000/svg"  viewBox="0 0 20 20">
    <defs>
        <clipPath id="lc7r54ulwa">
            <path data-name="Rectangle 557"  d="M0 0h20v20H0z" />
        </clipPath>
    </defs>
    <g data-name="Group 11285">
        <g data-name="Group 11286" style="clip-path: url(#lc7r54ulwa)">
            <g data-name="Group 11285">
                <path data-name="Path 5839" d="M815.458 515.624c.579 0 1.159-.014 1.738 0a2.42 2.42 0 0 1 2.444 2.4q.049 1.8 0 3.6a2.4 2.4 0 0 1-2.41 2.394q-1.777.045-3.556 0a2.424 2.424 0 0 1-2.43-2.464q-.026-1.738 0-3.475a2.436 2.436 0 0 1 2.476-2.461c.58-.005 1.159.005 1.738.006zm2.863 4.215c0-.565.01-1.131 0-1.7a1.112 1.112 0 0 0-1.2-1.189q-1.674-.017-3.351 0a1.108 1.108 0 0 0-1.2 1.186q-.019 1.674 0 3.351a1.115 1.115 0 0 0 1.216 1.21q1.656.015 3.31 0a1.127 1.127 0 0 0 1.223-1.249c.006-.533.001-1.07.001-1.609z" transform="translate(-810.808 -515.061)"  />
                <path data-name="Path 5840" d="M815.456 524.105c.58 0 1.159-.013 1.737 0a2.421 2.421 0 0 1 2.445 2.405q.049 1.8 0 3.6a2.4 2.4 0 0 1-2.409 2.4 74 74 0 0 1-3.557 0 2.424 2.424 0 0 1-2.43-2.464q-.026-1.738 0-3.475a2.435 2.435 0 0 1 2.476-2.461c.582-.01 1.16-.005 1.738-.005zm2.864 4.244c0-.579.011-1.159 0-1.738a1.1 1.1 0 0 0-1.167-1.175q-1.7-.021-3.393 0a1.108 1.108 0 0 0-1.186 1.2q-.017 1.674 0 3.351a1.108 1.108 0 0 0 1.189 1.2q1.676.019 3.351 0a1.12 1.12 0 0 0 1.209-1.22c.005-.542-.003-1.081-.003-1.618z" transform="translate(-810.808 -512.94)"  />
                <path data-name="Path 5841" d="M828.128 528.312c0 .579.013 1.159 0 1.738a2.428 2.428 0 0 1-2.435 2.459 82.424 82.424 0 0 1-3.516 0 2.431 2.431 0 0 1-2.451-2.486q-.023-1.716 0-3.433a2.436 2.436 0 0 1 2.5-2.482q1.7-.021 3.393 0a2.441 2.441 0 0 1 2.514 2.507c.004.566-.003 1.132-.005 1.697zm-7.08-.006c0 .538-.005 1.076 0 1.614a1.134 1.134 0 0 0 1.248 1.265q1.633.011 3.269 0a1.125 1.125 0 0 0 1.234-1.236q.013-1.635 0-3.269a1.123 1.123 0 0 0-1.226-1.244q-1.656-.013-3.31 0a1.119 1.119 0 0 0-1.214 1.215c-.008.549-.001 1.103-.001 1.654z" transform="translate(-808.688 -512.941)"  />
                <path data-name="Path 5842" d="M828.527 520.431a2.327 2.327 0 0 1-.673 1.686c-.852.865-1.7 1.731-2.577 2.575a2.4 2.4 0 0 1-3.365-.02q-1.29-1.256-2.547-2.548a2.4 2.4 0 0 1-.009-3.365q1.268-1.309 2.578-2.576a2.393 2.393 0 0 1 3.334-.009c.886.851 1.747 1.727 2.608 2.605a2.3 2.3 0 0 1 .651 1.652zm-4.925-3.677a3.263 3.263 0 0 0-.751.4 99.4 99.4 0 0 0-2.52 2.51 1.069 1.069 0 0 0 .005 1.557q1.226 1.258 2.485 2.485a1.072 1.072 0 0 0 1.559.009q1.26-1.224 2.486-2.484a1.079 1.079 0 0 0 0-1.59 94.861 94.861 0 0 0-2.463-2.451 3.63 3.63 0 0 0-.803-.437z" transform="translate(-808.948 -515.09)"  />
            </g>
        </g>
    </g>
</svg>